PathFileType	4	(X/Y/Z)	C:/Users/beibeiliu/ov580/test_trc/User2\sequence.16_training_dense_left.trc
DataRate	CameraRate	NumFrames	NumMarkers	Units	OrigDataRate	OrigDataStartFrame	OrigNumFrames
120	120	18	19	mm	120	309	411
Frame#	Time	ThumbCMC			ThumbMCP			ThumbIP			ThumbTip			IndexMCP			IndexPIP			IndexTip			MiddleMCP			MiddlePIP			MiddleTip			RingMCP			RingPIP			RingTip			PinkyMCP			PinkyPIP			PinkyTip			BackHand1			BackHand2			BackHand3	
		X0	Y0	Z0	X1	Y1	Z1	X2	Y2	Z2	X3	Y3	Z3	X4	Y4	Z4	X5	Y5	Z5	X6	Y6	Z6	X7	Y7	Z7	X8	Y8	Z8	X9	Y9	Z9	X10	Y10	Z10	X11	Y11	Z11	X12	Y12	Z12	X13	Y13	Z13	X14	Y14	Z14	X15	Y15	Z15	X16	Y16	Z16	X17	Y17	Z17	X18	Y18	Z18	
308	2.56667	-118.905	3.92768	41.4033	-101.657	9.81957	20.238	-86.0129	18.2022	-10.19	-74.0886	19.1756	-29.2063	-152.526	2.15339	-31.3512	-157.641	5.38425	-60.8014	-165.045	0.576432	-86.3179	-173.407	-29.8112	-34.5839	-156.599	-59.6482	-46.0768	-139.199	-61.7829	-10.6791	-183.552	-51.1142	-25.801	-165.676	-75.1678	-30.5138	-146.25	-67.7642	-2.4805	-193.863	-61.3807	-1.97209	-169.784	-86.0245	-11.9522	-151.026	-80.7197	11.4238	-183.875	-15.8462	31.9985	-182.525	-9.50623	62.2333	-157.976	6.03221	37.345	
309	2.575	-116.737	-3.22511	43.8921	-102.764	-2.41683	21.1391	-84.9033	4.53866	-9.37885	-70.663	7.02744	-30.6559	-149.33	-5.17557	-27.373	-156.53	-5.20676	-56.6469	-160.555	-5.56951	-83.9727	-170.118	-33.6268	-33.0373	-157.911	-64.3777	-43.5432	-143.097	-67.8332	-5.51102	-186.415	-52.2036	-19.4607	-167.484	-77.5311	-26.5797	-151.484	-71.9515	7.47235	-193.811	-61.238	-2.63335	-175.549	-87.4185	-9.04719	-155.572	-81.2507	17.5262	-187.927	-18.2982	34.4339	-180.611	-9.17177	66.9203	-156.247	3.07477	37.3615	
310	2.58333	-114.571	-8.06305	51.1675	-96.908	-6.70474	27.6328	-82.8811	-6.5147	0.929649	-65.5179	-5.52925	-19.0281	-143.735	-9.75745	-22.8757	-151.108	-11.2156	-50.3884	-157.073	-13.4543	-77.5166	-168.184	-37.1537	-27.0357	-160.237	-70.7243	-34.6977	-141.564	-71.6378	2.60191	-185.341	-52.9122	-14.0998	-170.22	-80.9277	-20.0904	-155.247	-77.795	15.2678	-195.715	-61.7475	3.53569	-177.656	-89.7926	-0.34849	-159.384	-83.7311	23.374	-186.4	-18.659	39.69	-176.839	-6.70241	68.0678	-149.05	0.71434	46.9936	
311	2.59167	-111.629	-11.2458	63.9576	-95.4442	-12.1702	36.5603	-73.9042	-8.32176	10.6001	-63.6712	-11.9915	-10.4142	-143.38	-13.2648	-15.2453	-144.77	-13.4524	-41.6988	-146.546	-13.4435	-69.107	-163.149	-36.1277	-18.3553	-159.206	-72.157	-24.9167	-139.853	-72.3186	12.3468	-181.226	-51.6732	-6.71495	-170.93	-82.4897	-9.93767	-153.8	-79.7343	22.4226	-192.026	-59.1767	10.0756	-176.378	-86.9037	6.12482	-161.314	-85.5772	34.9915	-182.336	-17.8536	46.7041	-173.174	-5.33853	78.8202	-144.785	1.70248	49.5482	
312	2.6	-105.089	-9.20303	71.6105	-91.6891	-11.704	48.7016	-73.0629	-11.3275	22.3836	-58.4543	-13.4131	-0.225382	-135.013	-11.3594	-5.3079	-137.918	-13.4649	-34.4283	-144.025	-15.4473	-61.7913	-161.865	-35.4426	-7.29486	-149.455	-70.2393	-14.9766	-136.786	-70.1582	23.4096	-177.946	-50.0693	1.28309	-165.818	-77.9519	-1.95741	-149.227	-75.1214	31.2963	-190.134	-56.1743	18.2256	-174.562	-84.3388	16.5498	-160.069	-86.1163	44.1208	-177.201	-14.0218	54.0082	-172.646	-3.59652	88.1031	-140.787	1.37649	64.6536	
313	2.60833	-100.78	-7.39147	87.3623	-87.5079	-9.78053	64.6143	-68.1099	-8.65296	30.419	-51.124	-9.77837	14.7562	-128.714	-8.20319	8.00519	-133.871	-10.1545	-20.1012	-136.185	-11.8678	-49.8463	-152.119	-29.7359	0.765258	-150.821	-66.4635	-4.03396	-133.94	-67.8156	33.819	-172.589	-45.1159	9.62008	-165.744	-75.2493	10.6454	-147.31	-71.8972	42.993	-185.859	-48.5571	31.3517	-172.434	-79.24	23.9951	-157.36	-78.8722	53.1708	-170.654	-6.45424	62.0046	-169.609	3.58826	97.7226	-135.915	6.23632	73.8396	
314	2.61667	-100.377	-1.98325	99.4837	-83.7049	-3.81216	73.8111	-62.7114	-2.36245	47.9486	-48.6859	-6.0159	29.3327	-125.082	-1.22331	19.2236	-127.804	-3.16614	-10.3849	-128.284	-4.57394	-40.2988	-150.355	-22.8475	13.3132	-144.104	-57.3658	4.50403	-130.411	-61.9058	42.1271	-171.121	-35.9562	21.9581	-157.887	-63.7615	16.1089	-143.292	-66.2818	49.6471	-181.136	-40.74	36.5158	-171.918	-70.4287	31.2787	-154.64	-74.64	61.3686	-170.148	-2.19094	72.2471	-167.863	7.63384	108.565	-136.449	11.1476	84.2595	
315	2.625	-97.3373	5.29835	108.346	-80.5875	3.80338	84.6382	-60.929	5.27993	58.6374	-41.6967	7.19259	37.6888	-120.57	8.15343	22.0147	-119.818	8.19073	-4.12164	-120.831	5.91982	-31.4927	-144.323	-15.8856	16.8711	-136.97	-50.7045	12.9405	-128.476	-54.2777	51.6822	-164.317	-27.0961	27.802	-153.776	-57.3454	26.1801	-142.14	-57.5223	59.3746	-178.376	-32.3471	43.8876	-164.285	-62.1497	39.0723	-150.687	-61.7876	70.3256	-163.415	7.54353	82.5613	-166.101	14.6898	115.185	-133.411	20.1347	94.6766	
316	2.63333	-97.2029	12.0631	112.368	-80.7415	13.03	87.7853	-55.9491	18.5664	61.5122	-43.0147	14.0273	46.5687	-117.359	18.0039	33.2801	-119.527	16.9235	4.55836	-115.451	16.1331	-27.9664	-140.894	-4.45278	23.8744	-137.91	-39.7293	18.3791	-125.626	-43.869	58.2338	-163.322	-19.8682	30.9256	-152.63	-48.1777	29.7908	-141.428	-48.5952	64.4626	-179.74	-25.0248	45.9617	-164.343	-53.9556	44.2042	-148.357	-52.3032	71.3746	-162.584	16.5009	89.2586	-161.655	24.6436	121.677	-128.159	30.1683	99.1909	
317	2.64167	-93.5775	22.8144	113.26	-77.7694	21.8395	92.3858	-55.2556	27.0058	64.579	-38.8633	26.6462	46.5317	-119.473	27.2979	30.1344	-118.104	26.1378	5.33025	-118.812	23.9616	-27.1167	-144.858	5.46332	27.0127	-132.047	-29.6351	18.6111	-127.319	-36.7915	56.2726	-163.116	-10.8427	32.7633	-150.1	-37.0711	29.6416	-138.689	-37.189	65.8426	-178.342	-14.134	49.8977	-162.169	-44.4988	44.9744	-146.681	-42.1885	76.2162	-165.057	26.2069	91.0059	-161.246	30.7215	123.032	-128.782	36.2706	101.003	
318	2.65	-94.9732	31.8426	111.417	-78.4267	31.6077	91.2004	-56.5625	36.0723	61.8681	-42.6757	33.984	45.3923	-118.96	37.0569	27.2108	-113.81	36.7133	2.71475	-117.323	34.6289	-25.263	-141.527	12.8208	20.3429	-138.658	-20.942	16.2054	-125.441	-26.6303	54.2659	-161.229	2.13878	32.7169	-150.977	-29.5145	28.2037	-138.56	-26.5396	65.4595	-180.298	-6.88877	48.8616	-162.035	-34.1822	42.9113	-150.053	-33.7315	70.961	-165.519	33.3904	90.0329	-162.388	38.0815	122.243	-130.46	47.1746	101.436	
319	2.65833	-96.5834	38.9527	103.801	-77.9176	39.5317	86.1836	-56.2441	43.6753	57.0459	-44.2881	40.7796	40.3103	-117.843	46.2963	22.6893	-118.795	44.1497	-1.05942	-120.308	41.2343	-32.1004	-148.334	19.7524	15.482	-136.685	-14.6664	11.3473	-127.011	-20.7384	47.9794	-163.558	7.35338	25.6054	-154.136	-20.504	23.0243	-141.027	-21.4569	58.7755	-178.578	0.873576	43.4789	-167.216	-30.139	39.978	-150.089	-25.7641	69.974	-167.154	39.0626	79.7592	-163.055	45.9598	116.371	-134.417	53.8164	95.3318	
320	2.66667	-102.91	43.0596	100.134	-82.5112	45.1218	74.4953	-61.6568	47.8708	48.397	-45.3545	48.5768	29.8835	-125.798	49.7631	19.3437	-120.337	50.537	-8.85451	-118.64	48.2129	-40.6718	-151.697	26.2611	12.9249	-140.433	-9.06158	3.92652	-133.67	-15.8261	43.0222	-168.112	10.0041	18.1653	-157.579	-19.6877	18.982	-144.013	-15.1744	55.858	-185.101	4.16518	38.0878	-166.141	-23.5845	32.776	-151.874	-18.8851	65.6478	-173.881	45.2907	74.4954	-168.303	51.9301	109.257	-136.167	57.8481	90.6778	
321	2.675	-107.076	45.8662	87.0697	-83.0885	46.7627	69.0605	-64.8081	48.8947	42.3488	-48.3302	48.0847	22.6911	-130.603	49.918	6.00382	-124.362	49.7836	-16.6412	-125.981	48.1618	-49.6628	-153.84	26.6758	1.51621	-149.244	-5.67026	-4.18047	-136.096	-14.5582	34.7395	-172.13	14.1519	13.3222	-160.238	-17.0591	12.0482	-147.025	-14.1171	46.2129	-187.202	7.29995	32.8558	-172.034	-24.1606	29.6005	-155.045	-15.2947	58.3828	-175.263	47.2324	68.6769	-169.345	56.1941	102.304	-140.652	61.6446	80.4971	
322	2.68333	-108.403	44.9868	83.3453	-89.6571	45.4304	56.5969	-68.6896	47.0363	31.6829	-56.5576	44.4734	9.33538	-136.02	46.7123	-3.4342	-134.257	44.9615	-25.857	-135.092	40.5643	-54.4806	-157.564	24.1344	-4.6409	-156.56	-10.5181	-8.73408	-138.528	-16.2574	30.5662	-180.548	9.59244	8.34474	-168.826	-19.521	7.28409	-153.009	-16.0785	38.555	-192.524	3.49241	24.5968	-178.407	-26.7464	27.6414	-161.359	-15.9042	50.0632	-175.51	47.4298	61.9183	-172.755	54.8936	93.4521	-144.661	59.0787	67.846	
323	2.69167	-110.373	43.1891	72.4802	-94.6121	40.2756	51.801	-78.1652	38.0861	24.5307	-63.5569	35.0564	3.46557	-140.554	39.3211	-7.79684	-135.657	36.3062	-31.5658	-140.11	29.9901	-63.7689	-164.333	15.6467	-7.52795	-158.602	-19.8866	-9.43862	-144.868	-20.5182	30.9545	-183.252	1.69898	2.35948	-176.647	-27.5329	8.70014	-160.507	-19.2771	42.406	-198.357	-0.992686	23.7111	-183.411	-30.8906	26.3497	-166.868	-17.7309	53.784	-184.708	46.7377	58.0108	-176.267	54.1263	85.113	-143.117	57.5814	61.0303	
324	2.7	-113.998	38.4833	67.5996	-100.488	33.0978	45.847	-81.3516	30.9707	15.4325	-68.4363	24.7741	-1.42706	-146.224	29.1861	-9.68928	-146.13	22.6984	-36.9855	-146.923	15.2984	-64.6129	-170.866	6.93394	-6.73375	-168.96	-29.9107	-6.0966	-155.451	-28.6942	32.5281	-186.92	-7.20639	4.48806	-179.512	-34.9552	11.8711	-164.685	-22.4173	46.1655	-202.725	-5.25591	25.6995	-188.986	-37.384	33.1748	-170.429	-19.3142	53.7738	-188.18	43.2758	51.5153	-179.625	54.208	82.3657	-149.432	54.6582	58.0821	
325	2.70833	-115.05	34.9071	65.2654	-98.3544	29.155	42.5764	-84.7151	22.5241	11.5307	-72.0559	14.1718	-4.75047	-148.805	17.149	-9.44751	-148.002	7.80294	-37.174	-151.701	-1.55113	-62.47	-173.906	-7.39531	-5.80911	-171.747	-40.8079	2.49536	-155.004	-33.2	38.6683	-193.212	-15.3897	10.9986	-182.606	-45.3725	25.1902	-165.942	-27.5666	51.2093	-205.842	-14.2759	28.871	-188.216	-42.977	40.9323	-173.497	-21.6854	60.9185	-187.55	37.4244	47.7935	-181.035	50.4432	76.7313	-147.824	47.4949	53.601	
